<?xml version="1.0" encoding="utf-8"?>
<svg id="master-artboard" viewBox="0 0 800 600" xmlns="http://www.w3.org/2000/svg" width="800px" height="600px"><defs><radialGradient id="radial-gradient" cx="400" cy="300" r="633.19" gradientUnits="userSpaceOnUse"><stop offset="0" stop-color="#fcfcfc"/><stop offset="0.48" stop-color="#f5f5f5"/><stop offset="1" stop-color="#e8e8e8"/></radialGradient><linearGradient id="linear-gradient" x1="166.32" y1="514.91" x2="633.05" y2="48.18" gradientUnits="userSpaceOnUse"><stop offset="0" stop-color="#969696"/><stop offset="0.6" stop-color="#e9e9ea"/><stop offset="1" stop-color="#dddee0"/></linearGradient><linearGradient id="linear-gradient-2" x1="195.09" y1="50.7" x2="604.27" y2="459.88" gradientUnits="userSpaceOnUse"><stop offset="0" stop-color="#13adc3"/><stop offset="1" stop-color="#28388a"/></linearGradient><linearGradient id="linear-gradient-3" x1="400" y1="532.9" x2="400" y2="475.17" gradientUnits="userSpaceOnUse"><stop offset="0" stop-color="#a4a4a4"/><stop offset="0.11" stop-color="#8d9092"/><stop offset="0.2" stop-color="#bcbec1"/><stop offset="0.45" stop-color="#fff"/><stop offset="1" stop-color="#969696"/></linearGradient><linearGradient id="linear-gradient-4" x1="304.8" y1="533.56" x2="495.21" y2="533.56" gradientUnits="userSpaceOnUse"><stop offset="0.01" stop-color="#1f1f1f"/><stop offset="0.05" stop-color="#848484"/><stop offset="0.55" stop-color="#fff"/><stop offset="0.8" stop-color="#bcbec1"/><stop offset="0.89" stop-color="#8d9092"/><stop offset="0.95" stop-color="#a0a2a4"/><stop offset="1" stop-color="#393939"/></linearGradient></defs><title>imac-front</title><path d="M 0 0 H 800 V 600 H 0 V 0 Z" fill="url(#radial-gradient)" transform="matrix(1, 0, 0, 1, 0, 0)" style="fill-opacity: 0;"/><path d="M680.36,462.23a12.92,12.92,0,0,1-12.9,12.94H131.9A12.93,12.93,0,0,1,119,462.23V100.87a12.92,12.92,0,0,1,12.9-12.94H667.46a12.91,12.91,0,0,1,12.9,12.94Z" fill="url(#linear-gradient)" transform="matrix(1, 0, 0, 1, 0, 0)"/><path d="M680.36,424.15V100.87a12.91,12.91,0,0,0-12.9-12.94H131.9A12.92,12.92,0,0,0,119,100.87V424.15Z" fill="#28292a" transform="matrix(1, 0, 0, 1, 0, 0)"/><path d="M 139.619995 106.160004 H 659.73999 V 404.410004 H 139.619995 V 106.160004 Z" fill="url(#linear-gradient-2)" transform="matrix(1, 0, 0, 1, 0, 0)" style="fill: rgb(255, 255, 255);"/><path d="M494.43,532.14c-.93-.25-19.11-3.7-20.24-4.19s-2.75-.88-3.21-1.93c-4.67-11.42-8.05-50.85-8.05-50.85H337.07S333.69,514.6,329,526c-.46,1.05-2,1.45-3.21,1.93s-19.32,3.94-20.24,4.19c-.93.56-.77.76-.77.76H495.19S495.31,532.47,494.43,532.14Z" fill="url(#linear-gradient-3)" transform="matrix(1, 0, 0, 1, 0, 0)"/><path d="M 304.799988 532.900024 H 495.199982 V 534.230024 H 304.799988 V 532.900024 Z" fill="url(#linear-gradient-4)" transform="matrix(1, 0, 0, 1, 0, 0)"/><path d="M 305.720001 534.22998 H 494.430008 V 535.21998 H 305.720001 V 534.22998 Z" fill="#3b3c3d" transform="matrix(1, 0, 0, 1, 0, 0)"/><path d="M403.56,438.68a5.62,5.62,0,0,0,1.24-4.14,6,6,0,0,0-3.89,2.09,5.19,5.19,0,0,0-1.27,4A5.07,5.07,0,0,0,403.56,438.68Z" fill="#231f20" fill-rule="evenodd" transform="matrix(1, 0, 0, 1, 0, 0)"/><path d="M407.79,450.28a5.79,5.79,0,0,1-.42-3.26,5.37,5.37,0,0,1,1.84-3.25,5.29,5.29,0,0,1,1-.67,6.48,6.48,0,0,0-4.89-2.59c-2.3,0-3.27,1.09-4.86,1.09s-2.89-1.09-4.88-1.09a6.63,6.63,0,0,0-5.34,3.22l0,0a7.65,7.65,0,0,0-1.05,3.25,12,12,0,0,0,.09,3.26,15.62,15.62,0,0,0,.89,3.25,16.67,16.67,0,0,0,1.56,3l.17.24c1,1.57,2.43,3.24,4.21,3.25s2.14-1.06,4.4-1.07,2.69,1.08,4.36,1.07,3.11-1.71,4.16-3.25l.3-.45a17,17,0,0,0,1.52-2.8c0-.1.09-.19.13-.29A5.57,5.57,0,0,1,407.79,450.28Z" fill="#231f20" fill-rule="evenodd" transform="matrix(1, 0, 0, 1, 0, 0)"/></svg>